<svg width="1800" height="450" viewBox="0 0 1800 450" fill="none" xmlns="http://www.w3.org/2000/svg">
<rect width="1800" height="450" fill="white"/>
<rect x="49" y="24" width="1702" height="402" rx="41" fill="#1E2235" fill-opacity="0.4" stroke="#00F5D4" stroke-width="2"/>
<path d="M411.676 190H388.414V155.078H361.52V190H338.258V104.336H361.52V136.094H388.414V104.336H411.676V190ZM494.701 156.66C494.701 162.207 493.939 167.129 492.416 171.426C490.892 175.723 488.685 179.336 485.795 182.266C482.904 185.195 479.408 187.422 475.306 188.945C471.205 190.43 466.576 191.172 461.42 191.172C456.615 191.172 452.201 190.43 448.177 188.945C444.193 187.422 440.716 185.195 437.748 182.266C434.779 179.336 432.474 175.723 430.834 171.426C429.232 167.129 428.431 162.207 428.431 156.66C428.431 149.316 429.759 143.105 432.416 138.027C435.111 132.949 438.939 129.082 443.9 126.426C448.9 123.77 454.857 122.441 461.771 122.441C468.138 122.441 473.802 123.77 478.763 126.426C483.724 129.082 487.611 132.949 490.423 138.027C493.275 143.105 494.701 149.316 494.701 156.66ZM451.693 156.66C451.693 160.449 452.025 163.652 452.689 166.27C453.353 168.848 454.408 170.82 455.853 172.188C457.338 173.516 459.271 174.18 461.654 174.18C464.037 174.18 465.931 173.516 467.338 172.188C468.744 170.82 469.759 168.848 470.384 166.27C471.048 163.652 471.38 160.449 471.38 156.66C471.38 152.871 471.048 149.707 470.384 147.168C469.759 144.629 468.724 142.715 467.279 141.426C465.873 140.137 463.959 139.492 461.537 139.492C458.06 139.492 455.541 140.938 453.978 143.828C452.455 146.719 451.693 150.996 451.693 156.66ZM533.136 190H510.226V98.8281H533.136V190ZM583.817 122.441C592.216 122.441 598.778 124.531 603.505 128.711C608.231 132.852 610.595 138.77 610.595 146.465V190H594.716L590.321 181.211H589.852C587.977 183.555 586.044 185.469 584.052 186.953C582.098 188.398 579.852 189.453 577.313 190.117C574.774 190.82 571.669 191.172 567.997 191.172C564.169 191.172 560.731 190.391 557.684 188.828C554.637 187.266 552.235 184.902 550.477 181.738C548.72 178.574 547.841 174.57 547.841 169.727C547.841 162.617 550.302 157.344 555.223 153.906C560.145 150.469 567.274 148.535 576.61 148.105L587.684 147.754V146.816C587.684 143.848 586.942 141.738 585.458 140.488C584.012 139.238 582.059 138.613 579.598 138.613C576.981 138.613 574.052 139.082 570.809 140.02C567.606 140.918 564.384 142.09 561.141 143.535L554.52 128.418C558.348 126.465 562.684 124.98 567.528 123.965C572.372 122.949 577.802 122.441 583.817 122.441ZM587.802 160.352L582.528 160.586C578.309 160.742 575.341 161.484 573.622 162.812C571.942 164.102 571.102 165.957 571.102 168.379C571.102 170.645 571.708 172.324 572.919 173.418C574.13 174.473 575.731 175 577.723 175C580.497 175 582.86 174.121 584.813 172.363C586.805 170.605 587.802 168.32 587.802 165.508V160.352ZM649.85 172.48L650.67 173.828C649.967 176.68 649.049 180.117 647.916 184.141C646.823 188.125 645.612 192.129 644.284 196.152C642.995 200.215 641.686 203.73 640.358 206.699H624.01C624.791 203.027 625.553 199.16 626.295 195.098C627.038 191.035 627.721 187.051 628.346 183.145C628.971 179.238 629.459 175.684 629.811 172.48H649.85ZM751.037 169.609C751.037 173.828 750.099 177.559 748.224 180.801C746.349 184.043 743.341 186.582 739.201 188.418C735.099 190.254 729.689 191.172 722.97 191.172C718.244 191.172 714.005 190.918 710.255 190.41C706.545 189.902 702.775 188.926 698.947 187.48V169.141C703.127 171.055 707.384 172.441 711.72 173.301C716.056 174.121 719.474 174.531 721.974 174.531C724.552 174.531 726.427 174.258 727.599 173.711C728.81 173.125 729.416 172.266 729.416 171.133C729.416 170.156 729.005 169.336 728.185 168.672C727.404 167.969 725.978 167.168 723.908 166.27C721.877 165.371 719.005 164.16 715.295 162.637C711.623 161.113 708.556 159.453 706.095 157.656C703.673 155.859 701.857 153.711 700.646 151.211C699.435 148.711 698.83 145.645 698.83 142.012C698.83 135.527 701.33 130.645 706.33 127.363C711.33 124.082 717.951 122.441 726.193 122.441C730.568 122.441 734.689 122.93 738.556 123.906C742.423 124.844 746.427 126.23 750.568 128.066L744.298 142.832C741.017 141.348 737.697 140.156 734.337 139.258C730.978 138.359 728.302 137.91 726.31 137.91C724.513 137.91 723.127 138.145 722.15 138.613C721.173 139.082 720.685 139.766 720.685 140.664C720.685 141.484 721.017 142.207 721.681 142.832C722.384 143.457 723.693 144.18 725.607 145C727.521 145.82 730.314 146.973 733.986 148.457C737.853 150.02 741.037 151.699 743.537 153.496C746.076 155.254 747.951 157.402 749.162 159.941C750.412 162.48 751.037 165.703 751.037 169.609ZM829.609 156.66C829.609 162.207 828.847 167.129 827.323 171.426C825.8 175.723 823.593 179.336 820.702 182.266C817.812 185.195 814.316 187.422 810.214 188.945C806.112 190.43 801.484 191.172 796.327 191.172C791.523 191.172 787.109 190.43 783.085 188.945C779.101 187.422 775.624 185.195 772.655 182.266C769.687 179.336 767.382 175.723 765.741 171.426C764.14 167.129 763.339 162.207 763.339 156.66C763.339 149.316 764.667 143.105 767.323 138.027C770.019 132.949 773.847 129.082 778.808 126.426C783.808 123.77 789.765 122.441 796.679 122.441C803.046 122.441 808.71 123.77 813.671 126.426C818.632 129.082 822.519 132.949 825.331 138.027C828.183 143.105 829.609 149.316 829.609 156.66ZM786.601 156.66C786.601 160.449 786.933 163.652 787.597 166.27C788.261 168.848 789.316 170.82 790.761 172.188C792.245 173.516 794.179 174.18 796.562 174.18C798.945 174.18 800.839 173.516 802.245 172.188C803.652 170.82 804.667 168.848 805.292 166.27C805.956 163.652 806.288 160.449 806.288 156.66C806.288 152.871 805.956 149.707 805.292 147.168C804.667 144.629 803.632 142.715 802.187 141.426C800.78 140.137 798.866 139.492 796.445 139.492C792.968 139.492 790.448 140.938 788.886 143.828C787.362 146.719 786.601 150.996 786.601 156.66ZM837.106 123.613H861.247L872.497 161.699C872.653 162.246 872.809 162.93 872.966 163.75C873.122 164.531 873.259 165.371 873.376 166.27C873.493 167.168 873.571 168.047 873.61 168.906H874.079C874.274 167.305 874.489 165.918 874.723 164.746C874.997 163.535 875.251 162.559 875.485 161.816L887.028 123.613H910.407L884.157 194.219C882.126 199.609 879.763 204.121 877.067 207.754C874.411 211.426 871.11 214.18 867.165 216.016C863.259 217.891 858.395 218.828 852.575 218.828C850.466 218.828 848.649 218.711 847.126 218.477C845.641 218.281 844.333 218.066 843.2 217.832V199.844C844.059 200 845.114 200.156 846.364 200.312C847.614 200.469 848.923 200.547 850.29 200.547C852.829 200.547 854.88 200.039 856.442 199.023C858.044 198.008 859.352 196.66 860.368 194.98C861.384 193.34 862.263 191.562 863.005 189.648L863.239 189.062L837.106 123.613Z" fill="white"/>
<path d="M1006.55 190H955.695V104.336H1006.55V122.91H978.84V136.387H1004.5V154.961H978.84V171.133H1006.55V190ZM1043.23 191.172C1036.4 191.172 1030.77 188.262 1026.36 182.441C1021.94 176.621 1019.74 168.105 1019.74 156.895C1019.74 145.566 1022 136.992 1026.53 131.172C1031.06 125.352 1036.92 122.441 1044.11 122.441C1047.08 122.441 1049.64 122.871 1051.79 123.73C1053.94 124.59 1055.79 125.762 1057.35 127.246C1058.95 128.691 1060.34 130.332 1061.51 132.168H1061.98C1061.71 130.488 1061.45 128.184 1061.22 125.254C1060.99 122.285 1060.87 119.395 1060.87 116.582V98.8281H1083.95V190H1066.67L1061.75 181.621H1060.87C1059.81 183.379 1058.49 184.98 1056.88 186.426C1055.32 187.871 1053.41 189.023 1051.14 189.883C1048.92 190.742 1046.28 191.172 1043.23 191.172ZM1052.61 173.066C1056.28 173.066 1058.86 171.914 1060.34 169.609C1061.86 167.266 1062.69 163.711 1062.8 158.945V157.129C1062.8 151.895 1062.06 147.891 1060.58 145.117C1059.13 142.305 1056.4 140.898 1052.37 140.898C1049.64 140.898 1047.37 142.227 1045.58 144.883C1043.78 147.539 1042.88 151.66 1042.88 157.246C1042.88 162.754 1043.78 166.777 1045.58 169.316C1047.41 171.816 1049.76 173.066 1052.61 173.066ZM1166.8 123.613V190H1149.52L1146.65 181.738H1145.3C1143.93 183.965 1142.19 185.781 1140.09 187.188C1138.01 188.555 1135.71 189.551 1133.17 190.176C1130.63 190.84 1128 191.172 1125.26 191.172C1120.92 191.172 1117 190.332 1113.48 188.652C1110.01 186.973 1107.23 184.336 1105.16 180.742C1103.13 177.148 1102.12 172.52 1102.12 166.855V123.613H1125.03V159.883C1125.03 164.18 1125.63 167.461 1126.84 169.727C1128.09 171.953 1130.12 173.066 1132.94 173.066C1135.83 173.066 1138.05 172.285 1139.62 170.723C1141.22 169.16 1142.33 166.855 1142.96 163.809C1143.58 160.762 1143.89 157.051 1143.89 152.676V123.613H1166.8ZM1217.43 122.441C1225.83 122.441 1232.39 124.531 1237.11 128.711C1241.84 132.852 1244.2 138.77 1244.2 146.465V190H1228.33L1223.93 181.211H1223.46C1221.59 183.555 1219.65 185.469 1217.66 186.953C1215.71 188.398 1213.46 189.453 1210.92 190.117C1208.38 190.82 1205.28 191.172 1201.61 191.172C1197.78 191.172 1194.34 190.391 1191.29 188.828C1188.25 187.266 1185.84 184.902 1184.09 181.738C1182.33 178.574 1181.45 174.57 1181.45 169.727C1181.45 162.617 1183.91 157.344 1188.83 153.906C1193.75 150.469 1200.88 148.535 1210.22 148.105L1221.29 147.754V146.816C1221.29 143.848 1220.55 141.738 1219.07 140.488C1217.62 139.238 1215.67 138.613 1213.21 138.613C1210.59 138.613 1207.66 139.082 1204.42 140.02C1201.22 140.918 1197.99 142.09 1194.75 143.535L1188.13 128.418C1191.96 126.465 1196.29 124.98 1201.14 123.965C1205.98 122.949 1211.41 122.441 1217.43 122.441ZM1221.41 160.352L1216.14 160.586C1211.92 160.742 1208.95 161.484 1207.23 162.812C1205.55 164.102 1204.71 165.957 1204.71 168.379C1204.71 170.645 1205.32 172.324 1206.53 173.418C1207.74 174.473 1209.34 175 1211.33 175C1214.11 175 1216.47 174.121 1218.42 172.363C1220.41 170.605 1221.41 168.32 1221.41 165.508V160.352ZM1302.27 122.441C1303.52 122.441 1304.83 122.539 1306.19 122.734C1307.56 122.891 1308.58 123.027 1309.24 123.145L1307.19 144.766C1306.45 144.57 1305.49 144.414 1304.32 144.297C1303.15 144.141 1301.51 144.062 1299.4 144.062C1297.95 144.062 1296.41 144.199 1294.77 144.473C1293.13 144.746 1291.56 145.332 1290.08 146.23C1288.64 147.09 1287.44 148.418 1286.51 150.215C1285.57 151.973 1285.1 154.355 1285.1 157.363V190H1262.19V123.613H1279.24L1282.81 134.219H1283.93C1285.14 132.031 1286.68 130.059 1288.56 128.301C1290.47 126.504 1292.6 125.078 1294.94 124.023C1297.33 122.969 1299.77 122.441 1302.27 122.441ZM1341.58 191.172C1334.75 191.172 1329.12 188.262 1324.71 182.441C1320.29 176.621 1318.09 168.105 1318.09 156.895C1318.09 145.566 1320.35 136.992 1324.88 131.172C1329.41 125.352 1335.27 122.441 1342.46 122.441C1345.43 122.441 1347.99 122.871 1350.14 123.73C1352.29 124.59 1354.14 125.762 1355.7 127.246C1357.3 128.691 1358.69 130.332 1359.86 132.168H1360.33C1360.06 130.488 1359.8 128.184 1359.57 125.254C1359.34 122.285 1359.22 119.395 1359.22 116.582V98.8281H1382.3V190H1365.02L1360.1 181.621H1359.22C1358.16 183.379 1356.84 184.98 1355.23 186.426C1353.67 187.871 1351.76 189.023 1349.49 189.883C1347.27 190.742 1344.63 191.172 1341.58 191.172ZM1350.96 173.066C1354.63 173.066 1357.21 171.914 1358.69 169.609C1360.21 167.266 1361.04 163.711 1361.15 158.945V157.129C1361.15 151.895 1360.41 147.891 1358.93 145.117C1357.48 142.305 1354.75 140.898 1350.72 140.898C1347.99 140.898 1345.72 142.227 1343.93 144.883C1342.13 147.539 1341.23 151.66 1341.23 157.246C1341.23 162.754 1342.13 166.777 1343.93 169.316C1345.76 171.816 1348.11 173.066 1350.96 173.066ZM1463.98 156.66C1463.98 162.207 1463.22 167.129 1461.7 171.426C1460.17 175.723 1457.97 179.336 1455.08 182.266C1452.19 185.195 1448.69 187.422 1444.59 188.945C1440.49 190.43 1435.86 191.172 1430.7 191.172C1425.9 191.172 1421.48 190.43 1417.46 188.945C1413.47 187.422 1410 185.195 1407.03 182.266C1404.06 179.336 1401.76 175.723 1400.11 171.426C1398.51 167.129 1397.71 162.207 1397.71 156.66C1397.71 149.316 1399.04 143.105 1401.7 138.027C1404.39 132.949 1408.22 129.082 1413.18 126.426C1418.18 123.77 1424.14 122.441 1431.05 122.441C1437.42 122.441 1443.08 123.77 1448.04 126.426C1453.01 129.082 1456.89 132.949 1459.7 138.027C1462.56 143.105 1463.98 149.316 1463.98 156.66ZM1420.97 156.66C1420.97 160.449 1421.31 163.652 1421.97 166.27C1422.63 168.848 1423.69 170.82 1425.13 172.188C1426.62 173.516 1428.55 174.18 1430.94 174.18C1433.32 174.18 1435.21 173.516 1436.62 172.188C1438.03 170.82 1439.04 168.848 1439.67 166.27C1440.33 163.652 1440.66 160.449 1440.66 156.66C1440.66 152.871 1440.33 149.707 1439.67 147.168C1439.04 144.629 1438.01 142.715 1436.56 141.426C1435.15 140.137 1433.24 139.492 1430.82 139.492C1427.34 139.492 1424.82 140.938 1423.26 143.828C1421.74 146.719 1420.97 150.996 1420.97 156.66Z" fill="#00F5D4"/>
<path d="M605.613 311.174C605.613 315.959 604.764 319.973 603.064 323.215C601.385 326.457 598.885 328.898 595.564 330.539C592.264 332.18 588.172 333 583.289 333H573.035V290.168H584.637C589.207 290.168 593.045 290.969 596.15 292.57C599.256 294.172 601.609 296.535 603.211 299.66C604.812 302.766 605.613 306.604 605.613 311.174ZM602.449 311.291C602.449 307.209 601.785 303.801 600.457 301.066C599.129 298.332 597.098 296.281 594.363 294.914C591.629 293.527 588.162 292.834 583.963 292.834H576.053V330.334H583.143C589.607 330.334 594.441 328.752 597.645 325.588C600.848 322.404 602.449 317.639 602.449 311.291ZM627.907 300.539C630.622 300.539 632.878 301.174 634.675 302.443C636.491 303.713 637.839 305.451 638.718 307.658C639.616 309.865 640.065 312.395 640.065 315.246V317.385H617.067C617.067 321.76 618.073 325.119 620.085 327.463C622.116 329.807 625.016 330.979 628.786 330.979C630.759 330.979 632.468 330.822 633.913 330.51C635.378 330.178 636.999 329.621 638.776 328.84V331.564C637.214 332.268 635.651 332.775 634.089 333.088C632.526 333.42 630.729 333.586 628.698 333.586C625.475 333.586 622.77 332.922 620.583 331.594C618.415 330.246 616.774 328.352 615.661 325.91C614.567 323.469 614.02 320.617 614.02 317.355C614.02 314.172 614.548 311.311 615.602 308.771C616.677 306.232 618.239 304.23 620.29 302.766C622.36 301.281 624.899 300.539 627.907 300.539ZM627.878 303.088C624.831 303.088 622.36 304.104 620.466 306.135C618.591 308.146 617.487 311.057 617.155 314.865H636.989C636.989 312.541 636.657 310.49 635.993 308.713C635.329 306.936 634.323 305.559 632.975 304.582C631.647 303.586 629.948 303.088 627.878 303.088ZM669.947 324.65C669.947 326.545 669.468 328.166 668.511 329.514C667.574 330.842 666.197 331.857 664.38 332.561C662.564 333.244 660.328 333.586 657.671 333.586C655.464 333.586 653.492 333.391 651.754 333C650.015 332.609 648.56 332.131 647.388 331.564V328.635C648.853 329.357 650.474 329.943 652.252 330.393C654.029 330.842 655.855 331.066 657.73 331.066C661.011 331.066 663.375 330.51 664.82 329.396C666.265 328.283 666.988 326.76 666.988 324.826C666.988 323.557 666.627 322.512 665.904 321.691C665.201 320.852 664.185 320.129 662.857 319.523C661.529 318.918 659.927 318.303 658.052 317.678C656.099 317.014 654.361 316.359 652.838 315.715C651.334 315.051 650.152 314.182 649.293 313.107C648.433 312.014 648.004 310.529 648.004 308.654C648.004 306.096 649.029 304.104 651.08 302.678C653.13 301.252 655.884 300.539 659.341 300.539C661.255 300.539 663.033 300.725 664.673 301.096C666.334 301.447 667.838 301.906 669.185 302.473L668.13 304.992C666.92 304.426 665.523 303.967 663.941 303.615C662.359 303.264 660.777 303.088 659.195 303.088C656.597 303.088 654.566 303.547 653.101 304.465C651.636 305.383 650.904 306.73 650.904 308.508C650.904 309.875 651.255 310.949 651.959 311.73C652.662 312.492 653.668 313.137 654.976 313.664C656.285 314.172 657.838 314.738 659.634 315.363C661.49 316.008 663.199 316.682 664.761 317.385C666.343 318.088 667.603 318.996 668.541 320.109C669.478 321.223 669.947 322.736 669.947 324.65ZM690.307 300.598C693.803 300.598 696.42 301.477 698.159 303.234C699.897 304.992 700.766 307.795 700.766 311.643V333H698.481L697.954 327.434H697.778C697.094 328.625 696.264 329.689 695.287 330.627C694.311 331.545 693.11 332.268 691.684 332.795C690.278 333.322 688.559 333.586 686.528 333.586C684.477 333.586 682.719 333.244 681.254 332.561C679.809 331.877 678.686 330.881 677.885 329.572C677.104 328.264 676.713 326.672 676.713 324.797C676.713 321.633 678.022 319.23 680.639 317.59C683.256 315.93 687.016 314.992 691.918 314.777L697.836 314.484V312.17C697.836 308.908 697.192 306.584 695.903 305.197C694.614 303.811 692.709 303.117 690.19 303.117C688.549 303.117 686.967 303.332 685.444 303.762C683.94 304.172 682.407 304.768 680.844 305.549L679.907 303.088C681.43 302.365 683.061 301.77 684.799 301.301C686.557 300.832 688.393 300.598 690.307 300.598ZM697.807 316.799L692.241 317.033C688.198 317.229 685.121 317.951 683.012 319.201C680.903 320.451 679.848 322.326 679.848 324.826C679.848 326.838 680.473 328.381 681.723 329.455C682.993 330.529 684.75 331.066 686.996 331.066C690.493 331.066 693.159 330.07 694.995 328.078C696.85 326.086 697.787 323.371 697.807 319.934V316.799ZM724.876 300.598C725.716 300.598 726.507 300.646 727.249 300.744C727.991 300.842 728.685 300.979 729.329 301.154L728.861 303.879C728.216 303.703 727.562 303.576 726.898 303.498C726.234 303.4 725.521 303.352 724.759 303.352C723.255 303.352 721.907 303.635 720.716 304.201C719.544 304.768 718.548 305.578 717.728 306.633C716.907 307.688 716.282 308.957 715.853 310.441C715.423 311.926 715.208 313.586 715.208 315.422V333H712.22V301.154H714.769L715.062 307.16H715.238C715.726 305.93 716.409 304.826 717.288 303.85C718.187 302.854 719.271 302.062 720.54 301.477C721.81 300.891 723.255 300.598 724.876 300.598ZM749.455 300.598C750.295 300.598 751.086 300.646 751.828 300.744C752.57 300.842 753.264 300.979 753.908 301.154L753.439 303.879C752.795 303.703 752.141 303.576 751.477 303.498C750.812 303.4 750.1 303.352 749.338 303.352C747.834 303.352 746.486 303.635 745.295 304.201C744.123 304.768 743.127 305.578 742.307 306.633C741.486 307.688 740.861 308.957 740.432 310.441C740.002 311.926 739.787 313.586 739.787 315.422V333H736.799V301.154H739.348L739.641 307.16H739.816C740.305 305.93 740.988 304.826 741.867 303.85C742.766 302.854 743.85 302.062 745.119 301.477C746.389 300.891 747.834 300.598 749.455 300.598ZM787.774 317.033C787.774 319.494 787.471 321.74 786.866 323.771C786.261 325.783 785.362 327.521 784.171 328.986C782.979 330.451 781.495 331.584 779.718 332.385C777.96 333.186 775.909 333.586 773.565 333.586C771.339 333.586 769.356 333.195 767.618 332.414C765.88 331.613 764.405 330.48 763.194 329.016C762.003 327.551 761.095 325.812 760.47 323.801C759.845 321.77 759.532 319.514 759.532 317.033C759.532 313.615 760.098 310.676 761.231 308.215C762.384 305.734 764.024 303.84 766.153 302.531C768.302 301.203 770.87 300.539 773.858 300.539C776.944 300.539 779.512 301.242 781.563 302.648C783.634 304.035 785.186 305.969 786.221 308.449C787.257 310.93 787.774 313.791 787.774 317.033ZM762.579 317.033C762.579 319.826 762.979 322.268 763.78 324.357C764.581 326.447 765.792 328.078 767.413 329.25C769.054 330.422 771.124 331.008 773.624 331.008C776.182 331.008 778.282 330.422 779.923 329.25C781.563 328.078 782.774 326.438 783.555 324.328C784.337 322.219 784.727 319.787 784.727 317.033C784.727 314.357 784.356 311.975 783.614 309.885C782.872 307.795 781.7 306.154 780.098 304.963C778.497 303.752 776.407 303.146 773.829 303.146C770.137 303.146 767.335 304.377 765.421 306.838C763.526 309.299 762.579 312.697 762.579 317.033ZM800.781 333H797.793V287.414H800.781V333ZM815.575 333H812.586V287.414H815.575V333ZM838.484 300.598C841.98 300.598 844.597 301.477 846.335 303.234C848.073 304.992 848.943 307.795 848.943 311.643V333H846.657L846.13 327.434H845.954C845.271 328.625 844.441 329.689 843.464 330.627C842.488 331.545 841.286 332.268 839.861 332.795C838.454 333.322 836.736 333.586 834.704 333.586C832.654 333.586 830.896 333.244 829.431 332.561C827.986 331.877 826.863 330.881 826.062 329.572C825.28 328.264 824.89 326.672 824.89 324.797C824.89 321.633 826.198 319.23 828.816 317.59C831.433 315.93 835.193 314.992 840.095 314.777L846.013 314.484V312.17C846.013 308.908 845.368 306.584 844.079 305.197C842.79 303.811 840.886 303.117 838.366 303.117C836.726 303.117 835.144 303.332 833.62 303.762C832.116 304.172 830.583 304.768 829.021 305.549L828.083 303.088C829.607 302.365 831.238 301.77 832.976 301.301C834.734 300.832 836.57 300.598 838.484 300.598ZM845.984 316.799L840.417 317.033C836.374 317.229 833.298 317.951 831.189 319.201C829.079 320.451 828.025 322.326 828.025 324.826C828.025 326.838 828.65 328.381 829.9 329.455C831.169 330.529 832.927 331.066 835.173 331.066C838.669 331.066 841.335 330.07 843.171 328.078C845.027 326.086 845.964 323.371 845.984 319.934V316.799ZM871.91 333.586C867.555 333.586 864.234 332.219 861.949 329.484C859.684 326.73 858.551 322.727 858.551 317.473C858.551 311.965 859.752 307.766 862.154 304.875C864.557 301.984 867.906 300.539 872.203 300.539C874.039 300.539 875.631 300.822 876.979 301.389C878.346 301.955 879.488 302.727 880.406 303.703C881.344 304.66 882.066 305.754 882.574 306.984H882.809C882.73 305.949 882.672 304.836 882.633 303.645C882.594 302.453 882.574 301.359 882.574 300.363V287.414H885.533V333H883.131L882.75 327.17H882.574C882.047 328.342 881.314 329.416 880.377 330.393C879.459 331.369 878.307 332.15 876.92 332.736C875.533 333.303 873.863 333.586 871.91 333.586ZM872.232 331.008C875.982 331.008 878.648 329.846 880.23 327.521C881.812 325.178 882.604 321.838 882.604 317.502V317.033C882.604 312.541 881.812 309.104 880.23 306.721C878.648 304.318 876.07 303.117 872.496 303.117C868.961 303.117 866.256 304.348 864.381 306.809C862.525 309.27 861.598 312.844 861.598 317.531C861.598 321.945 862.467 325.295 864.205 327.58C865.963 329.865 868.639 331.008 872.232 331.008ZM923.735 317.033C923.735 319.494 923.432 321.74 922.827 323.771C922.221 325.783 921.323 327.521 920.132 328.986C918.94 330.451 917.456 331.584 915.679 332.385C913.921 333.186 911.87 333.586 909.526 333.586C907.3 333.586 905.317 333.195 903.579 332.414C901.841 331.613 900.366 330.48 899.155 329.016C897.964 327.551 897.055 325.812 896.43 323.801C895.805 321.77 895.493 319.514 895.493 317.033C895.493 313.615 896.059 310.676 897.192 308.215C898.345 305.734 899.985 303.84 902.114 302.531C904.263 301.203 906.831 300.539 909.819 300.539C912.905 300.539 915.473 301.242 917.524 302.648C919.595 304.035 921.147 305.969 922.182 308.449C923.218 310.93 923.735 313.791 923.735 317.033ZM898.54 317.033C898.54 319.826 898.94 322.268 899.741 324.357C900.542 326.447 901.753 328.078 903.374 329.25C905.014 330.422 907.085 331.008 909.585 331.008C912.143 331.008 914.243 330.422 915.884 329.25C917.524 328.078 918.735 326.438 919.516 324.328C920.298 322.219 920.688 319.787 920.688 317.033C920.688 314.357 920.317 311.975 919.575 309.885C918.833 307.795 917.661 306.154 916.059 304.963C914.458 303.752 912.368 303.146 909.79 303.146C906.098 303.146 903.296 304.377 901.382 306.838C899.487 309.299 898.54 312.697 898.54 317.033ZM946.41 300.598C947.25 300.598 948.041 300.646 948.783 300.744C949.525 300.842 950.218 300.979 950.863 301.154L950.394 303.879C949.75 303.703 949.095 303.576 948.431 303.498C947.767 303.4 947.054 303.352 946.293 303.352C944.789 303.352 943.441 303.635 942.25 304.201C941.078 304.768 940.082 305.578 939.261 306.633C938.441 307.688 937.816 308.957 937.386 310.441C936.957 311.926 936.742 313.586 936.742 315.422V333H933.754V301.154H936.302L936.595 307.16H936.771C937.259 305.93 937.943 304.826 938.822 303.85C939.72 302.854 940.804 302.062 942.074 301.477C943.343 300.891 944.789 300.598 946.41 300.598ZM978.868 333H975.851V290.168H999.288V292.893H978.868V311.145H998.175V313.84H978.868V333ZM1031.22 301.154V333H1028.82L1028.38 327.258H1028.2C1027.66 328.43 1026.88 329.494 1025.89 330.451C1024.89 331.408 1023.67 332.17 1022.23 332.736C1020.78 333.303 1019.1 333.586 1017.19 333.586C1014.75 333.586 1012.7 333.166 1011.04 332.326C1009.39 331.467 1008.15 330.178 1007.31 328.459C1006.47 326.74 1006.05 324.592 1006.05 322.014V301.154H1009.01V321.721C1009.01 324.904 1009.73 327.248 1011.15 328.752C1012.6 330.256 1014.71 331.008 1017.48 331.008C1019.82 331.008 1021.79 330.559 1023.37 329.66C1024.97 328.762 1026.18 327.404 1027 325.588C1027.84 323.752 1028.26 321.467 1028.26 318.732V301.154H1031.22ZM1046.13 333H1043.14V287.414H1046.13V333ZM1060.93 333H1057.94V287.414H1060.93V333ZM1113.83 321.955C1113.83 324.514 1113.19 326.662 1111.9 328.4C1110.61 330.119 1108.86 331.418 1106.66 332.297C1104.45 333.156 1101.95 333.586 1099.16 333.586C1097.42 333.586 1095.84 333.498 1094.41 333.322C1093 333.166 1091.72 332.951 1090.57 332.678C1089.44 332.404 1088.4 332.092 1087.47 331.74V328.723C1088.99 329.309 1090.75 329.826 1092.74 330.275C1094.75 330.705 1096.94 330.92 1099.3 330.92C1101.53 330.92 1103.5 330.598 1105.22 329.953C1106.96 329.309 1108.33 328.332 1109.32 327.023C1110.32 325.715 1110.82 324.064 1110.82 322.072C1110.82 320.314 1110.4 318.879 1109.56 317.766C1108.74 316.633 1107.5 315.666 1105.84 314.865C1104.17 314.045 1102.09 313.215 1099.57 312.375C1097.81 311.77 1096.21 311.135 1094.76 310.471C1093.34 309.787 1092.11 309.006 1091.1 308.127C1090.08 307.229 1089.3 306.154 1088.76 304.904C1088.23 303.635 1087.96 302.141 1087.96 300.422C1087.96 298.059 1088.56 296.076 1089.75 294.475C1090.96 292.854 1092.59 291.633 1094.64 290.812C1096.71 289.973 1099.04 289.553 1101.62 289.553C1103.67 289.553 1105.61 289.748 1107.45 290.139C1109.3 290.51 1111.09 291.076 1112.81 291.838L1111.75 294.445C1110.03 293.703 1108.32 293.156 1106.6 292.805C1104.88 292.453 1103.18 292.277 1101.5 292.277C1099.49 292.277 1097.69 292.58 1096.11 293.186C1094.55 293.771 1093.31 294.66 1092.39 295.852C1091.47 297.043 1091.01 298.547 1091.01 300.363C1091.01 302.238 1091.43 303.752 1092.27 304.904C1093.13 306.057 1094.34 307.014 1095.9 307.775C1097.49 308.537 1099.35 309.279 1101.5 310.002C1104.04 310.861 1106.23 311.77 1108.06 312.727C1109.9 313.664 1111.31 314.855 1112.31 316.301C1113.33 317.746 1113.83 319.631 1113.83 321.955ZM1132.05 331.037C1132.97 331.037 1133.82 330.969 1134.6 330.832C1135.4 330.695 1136.11 330.52 1136.71 330.305V332.766C1136.09 332.98 1135.36 333.166 1134.52 333.322C1133.68 333.498 1132.75 333.586 1131.73 333.586C1129.94 333.586 1128.44 333.254 1127.25 332.59C1126.06 331.906 1125.16 330.881 1124.55 329.514C1123.95 328.127 1123.65 326.369 1123.65 324.24V303.615H1118.9V301.857L1123.62 300.949L1124.64 293.449H1126.61V301.154H1136.54V303.615H1126.61V324.064C1126.61 326.35 1127.03 328.088 1127.87 329.279C1128.72 330.451 1130.12 331.037 1132.05 331.037ZM1155.87 300.598C1159.37 300.598 1161.99 301.477 1163.72 303.234C1165.46 304.992 1166.33 307.795 1166.33 311.643V333H1164.05L1163.52 327.434H1163.34C1162.66 328.625 1161.83 329.689 1160.85 330.627C1159.88 331.545 1158.67 332.268 1157.25 332.795C1155.84 333.322 1154.12 333.586 1152.09 333.586C1150.04 333.586 1148.28 333.244 1146.82 332.561C1145.37 331.877 1144.25 330.881 1143.45 329.572C1142.67 328.264 1142.28 326.672 1142.28 324.797C1142.28 321.633 1143.59 319.23 1146.2 317.59C1148.82 315.93 1152.58 314.992 1157.48 314.777L1163.4 314.484V312.17C1163.4 308.908 1162.76 306.584 1161.47 305.197C1160.18 303.811 1158.27 303.117 1155.75 303.117C1154.11 303.117 1152.53 303.332 1151.01 303.762C1149.5 304.172 1147.97 304.768 1146.41 305.549L1145.47 303.088C1146.99 302.365 1148.63 301.77 1150.36 301.301C1152.12 300.832 1153.96 300.598 1155.87 300.598ZM1163.37 316.799L1157.81 317.033C1153.76 317.229 1150.69 317.951 1148.58 319.201C1146.47 320.451 1145.41 322.326 1145.41 324.826C1145.41 326.838 1146.04 328.381 1147.29 329.455C1148.56 330.529 1150.32 331.066 1152.56 331.066C1156.06 331.066 1158.72 330.07 1160.56 328.078C1162.41 326.086 1163.35 323.371 1163.37 319.934V316.799ZM1190.53 333.586C1187.36 333.586 1184.69 332.932 1182.5 331.623C1180.33 330.295 1178.69 328.41 1177.58 325.969C1176.49 323.508 1175.94 320.598 1175.94 317.238C1175.94 313.742 1176.57 310.754 1177.84 308.273C1179.11 305.773 1180.9 303.859 1183.2 302.531C1185.51 301.203 1188.21 300.539 1191.32 300.539C1192.84 300.539 1194.26 300.676 1195.57 300.949C1196.88 301.223 1198.06 301.604 1199.11 302.092L1198.32 304.699C1197.23 304.211 1196.07 303.84 1194.84 303.586C1193.61 303.332 1192.42 303.205 1191.29 303.205C1188.67 303.205 1186.45 303.781 1184.61 304.934C1182.79 306.066 1181.4 307.688 1180.42 309.797C1179.46 311.887 1178.99 314.357 1178.99 317.209C1178.99 319.885 1179.4 322.258 1180.22 324.328C1181.04 326.379 1182.3 328 1184 329.191C1185.69 330.363 1187.87 330.949 1190.53 330.949C1192.07 330.949 1193.54 330.793 1194.92 330.48C1196.33 330.168 1197.61 329.768 1198.76 329.279V331.975C1197.73 332.443 1196.53 332.824 1195.16 333.117C1193.81 333.43 1192.27 333.586 1190.53 333.586ZM1210.45 287.414V310.412C1210.45 311.838 1210.43 313.293 1210.39 314.777C1210.37 316.242 1210.34 317.707 1210.3 319.172H1210.36C1210.93 318.508 1211.51 317.814 1212.12 317.092C1212.74 316.35 1213.36 315.637 1213.97 314.953L1226.56 301.154H1230.14L1217.57 314.807L1231.25 333H1227.71L1215.55 316.77L1210.45 322.131V333H1207.49V287.414H1210.45Z" fill="white"/>
</svg>
